<svg width="69" height="66" viewBox="0 0 69 66" fill="none" xmlns="http://www.w3.org/2000/svg">
<g clip-path="url(#clip0_68_6)">
<path d="M29.4345 57.3357C28.6461 56.8256 27.6863 56.5248 26.6656 56.5259C25.986 56.5259 25.3303 56.6582 24.7365 56.8991C23.8464 57.2591 23.0935 57.8576 22.5593 58.6139C22.0249 59.368 21.7125 60.2862 21.7138 61.2624C21.7125 61.9125 21.8511 62.5396 22.1027 63.1066C22.4803 63.9592 23.1049 64.6792 23.8944 65.1892C24.6839 65.7015 25.645 66.0003 26.6656 66.0003C27.3452 66.0003 27.9995 65.8677 28.5923 65.6271C29.4835 65.267 30.2375 64.6672 30.7708 63.9121C31.3039 63.158 31.6174 62.2388 31.6174 61.2626C31.6174 60.6126 31.4778 59.9867 31.2273 59.4186C30.8507 58.5657 30.2239 57.8457 29.4345 57.3357ZM28.5054 62.0055C28.3545 62.3469 28.0992 62.6414 27.78 62.8471C27.4596 63.0528 27.0844 63.1721 26.6657 63.1732C26.3854 63.1721 26.1256 63.1196 25.8888 63.0221C25.533 62.88 25.224 62.6348 25.0089 62.3306C24.7938 62.023 24.6702 61.663 24.668 61.2623C24.6692 60.9952 24.7251 60.748 24.8259 60.5193C24.9745 60.179 25.231 59.8846 25.5501 59.6778C25.8706 59.4721 26.247 59.3537 26.6657 59.3527C26.945 59.3527 27.2034 59.4065 27.4414 59.5026C27.7984 59.646 28.105 59.8901 28.3213 60.1965C28.5364 60.5029 28.6611 60.8619 28.6611 61.2623C28.6609 61.5304 28.6061 61.7778 28.5054 62.0055Z" fill="#572F29"/>
<path d="M56.5939 57.3357C55.8044 56.8256 54.8445 56.5248 53.8239 56.5259C53.1444 56.5259 52.4888 56.6582 51.896 56.8991C51.006 57.2591 50.2518 57.8576 49.7176 58.6139C49.1845 59.368 48.8709 60.2862 48.8721 61.2624C48.8709 61.9125 49.0105 62.5396 49.2622 63.1066C49.6386 63.9592 50.2646 64.6792 51.0539 65.1903C51.8422 65.7015 52.8032 66.0003 53.8239 66.0003C54.5035 66.0003 55.1592 65.8677 55.7517 65.6271C56.642 65.267 57.396 64.6672 57.9302 63.9121C58.4634 63.158 58.7769 62.2388 58.7757 61.2626C58.7768 60.6126 58.6372 59.9867 58.3856 59.4186C58.0092 58.5657 57.3833 57.8457 56.5939 57.3357ZM55.6637 62.0055C55.5139 62.3469 55.2577 62.6414 54.9395 62.8471C54.619 63.0528 54.2428 63.1721 53.8239 63.1732C53.5436 63.1721 53.2851 63.1196 53.0471 63.0221C52.6901 62.88 52.3834 62.6348 52.1684 62.3306C51.9521 62.023 51.8274 61.663 51.8274 61.2623C51.8274 60.9952 51.8834 60.748 51.9829 60.5193C52.1341 60.179 52.3891 59.8846 52.7083 59.6778C53.0287 59.4721 53.4051 59.3537 53.8238 59.3527C54.1041 59.3527 54.3627 59.4065 54.6007 59.5026C54.9565 59.646 55.2643 59.8901 55.4794 60.1965C55.6945 60.5029 55.8203 60.8619 55.8203 61.2623C55.8205 61.5304 55.7645 61.7778 55.6637 62.0055Z" fill="#572F29"/>
<path d="M69.5564 11.081C68.8757 10.2844 64.5515 11.081 63.4738 11.081H16.6658L15.0709 5.8401C14.3387 3.4971 12.3295 1.72297 9.83063 1.21082L4.10781 0.0386766C3.13979 -0.160483 2.18551 0.430423 1.9773 1.35739C1.77016 2.28422 2.38699 3.19701 3.35716 3.39501L9.07796 4.56831C10.2964 4.81775 11.2757 5.68232 11.6315 6.82495L22.089 41.1845C21.8535 41.2896 21.6257 41.4034 21.4071 41.5292C20.279 42.1717 19.3751 43.0735 18.7687 44.1263C18.1887 45.1266 17.8809 46.2603 17.8523 47.4303H17.8465V47.6086H17.8511C17.874 48.5225 18.0777 49.3991 18.4312 50.1991C18.9975 51.4785 19.9381 52.5608 21.1233 53.3268C22.3087 54.094 23.748 54.5437 25.2811 54.5427H58.9143C59.9062 54.5427 60.7106 53.7744 60.7106 52.8267C60.7106 51.879 59.9062 51.1107 58.9143 51.1107L25.2811 51.1096C24.7457 51.1096 24.2446 51.0068 23.7847 50.8218C23.0982 50.5439 22.5055 50.0754 22.0913 49.4866C21.6931 48.9207 21.4575 48.2542 21.4391 47.5233C21.4597 46.651 21.7504 45.8937 22.2606 45.2885C22.5249 44.9766 22.8509 44.703 23.2468 44.4764C23.6382 44.2531 24.0992 44.0759 24.6404 43.9643L58.4452 38.7013C60.6545 38.3566 62.4107 36.7412 62.857 34.6432L66.9919 15.1991V15.197C67.0398 14.9716 67.0628 14.7417 67.0628 14.5141C67.0628 13.7284 70.085 11.7006 69.5564 11.081ZM31.8943 36.68C30.8875 36.9623 29.8325 36.4085 29.5373 35.4455L24.6154 19.3251C24.3224 18.3621 24.8992 17.353 25.907 17.0717C26.915 16.7904 27.9699 17.3432 28.2639 18.3074L33.1848 34.4256C33.4801 35.3897 32.901 36.3999 31.8943 36.68ZM39.8483 35.4817C38.8416 35.763 37.7867 35.2104 37.4914 34.2461L32.9262 19.2946C32.6322 18.3315 33.21 17.3224 34.2181 17.0401C35.226 16.7599 36.2809 17.3126 36.5738 18.2767L41.1388 33.2273C41.4341 34.1914 40.8552 35.2004 39.8483 35.4817ZM47.8139 34.3185C46.8069 34.5996 45.7521 34.047 45.4569 33.0828L41.2384 19.2649C40.9444 18.302 41.5223 17.2917 42.5302 17.0116C43.5371 16.7293 44.5919 17.2819 44.8859 18.2462L49.1043 32.0639C49.3997 33.0269 48.8206 34.0371 47.8139 34.3185ZM55.7542 33.0772C54.7473 33.3585 53.6924 32.8059 53.3985 31.8417L49.5484 19.2331C49.2543 18.27 49.8322 17.2611 50.8401 16.9786C51.848 16.6984 52.9029 17.2501 53.1958 18.2141L57.047 30.8226C57.34 31.787 56.7621 32.7949 55.7542 33.0772Z" fill="#572F29"/>
<rect width="37.1319" height="20.9344" rx="5" transform="matrix(0.994114 -0.108345 0.132646 0.991163 21.2515 17.2338)" fill="#FFF0EB"/>
<path d="M32.5654 23.4448C32.4676 23.5969 32.3514 23.7588 32.2168 23.9306C32.0899 24.1016 31.946 24.2626 31.785 24.4137C31.6317 24.564 31.4643 24.6962 31.2825 24.8102C31.1075 24.9157 30.9191 24.9795 30.7171 25.0015C30.3055 25.0464 30.0733 24.8713 30.0204 24.4764C29.9987 24.3138 30.0362 24.0937 30.133 23.816C30.2365 23.5297 30.3773 23.2276 30.5554 22.9097C30.7335 22.5917 30.9364 22.2829 31.1642 21.9831C31.391 21.6755 31.6244 21.4183 31.8647 21.2114C32.1039 20.9968 32.3291 20.8544 32.5403 20.7842C32.7593 20.7132 32.9507 20.7592 33.1143 20.922C33.1423 21.1311 33.1547 21.3419 33.1516 21.5543C33.1485 21.7668 33.1455 21.9792 33.1424 22.1917C33.1383 22.3964 33.1341 22.6011 33.13 22.8059C33.1259 23.0106 33.1378 23.2175 33.1658 23.4265C33.172 23.473 33.1857 23.5461 33.207 23.646C33.2349 23.7372 33.2673 23.8319 33.3041 23.93C33.3476 24.0195 33.3978 24.1005 33.4548 24.1728C33.5107 24.2374 33.5775 24.2655 33.6552 24.257C33.8416 24.2367 33.9899 24.197 34.1002 24.1378C34.2182 24.0778 34.3158 24.0122 34.393 23.9409C34.4768 23.8611 34.5441 23.7752 34.5949 23.6832C34.6534 23.5905 34.7119 23.4977 34.7704 23.4049C34.8366 23.3112 34.9112 23.2206 34.994 23.133C35.0769 23.0454 35.1889 22.9703 35.3303 22.9078C35.3303 22.9078 35.3318 22.9194 35.335 22.9427C35.3381 22.9659 35.3407 22.9852 35.3427 23.0007C35.3686 23.1943 35.3363 23.3942 35.2457 23.6005C35.1541 23.7991 35.0288 23.9816 34.8699 24.1482C34.7109 24.3148 34.525 24.4569 34.3123 24.5743C34.1062 24.6832 33.8983 24.7491 33.6886 24.7719C33.51 24.7914 33.3596 24.7567 33.2374 24.6679C33.1152 24.5791 33.0098 24.4688 32.9212 24.337C32.8404 24.2044 32.7736 24.0585 32.7208 23.8993C32.6669 23.7323 32.6152 23.5808 32.5654 23.4448ZM32.5715 21.9004C32.615 21.6364 32.6188 21.4592 32.5831 21.3688C32.5551 21.2776 32.4961 21.2487 32.406 21.2821C32.3149 21.3077 32.2033 21.3866 32.0713 21.5189C31.9382 21.6434 31.7972 21.7962 31.6481 21.9775C31.4979 22.1509 31.3504 22.3438 31.2054 22.556C31.0605 22.7682 30.9261 22.9714 30.8024 23.1656C30.6776 23.352 30.578 23.52 30.5034 23.6696C30.4289 23.8191 30.3841 23.9261 30.3691 23.9906C30.3463 24.1738 30.3567 24.3101 30.4002 24.3997C30.4515 24.4884 30.5146 24.5483 30.5897 24.5794C30.6715 24.6019 30.7536 24.5968 30.8359 24.5643C30.926 24.5309 30.999 24.4876 31.0549 24.4344C31.1714 24.3038 31.3177 24.1308 31.4937 23.9152C31.6687 23.6918 31.8343 23.4577 31.9907 23.2129C32.1548 22.9671 32.2922 22.7282 32.403 22.4962C32.5128 22.2564 32.5689 22.0578 32.5715 21.9004ZM35.6445 23.8281C35.4969 23.8442 35.3664 23.8113 35.253 23.7294C35.1396 23.6474 35.0392 23.5445 34.9516 23.4205C34.8719 23.2956 34.8028 23.1617 34.7442 23.0188C34.6935 22.8751 34.6608 22.749 34.6463 22.6406C34.6142 22.4005 34.6238 22.1481 34.675 21.8833C34.733 21.6098 34.8202 21.3489 34.9367 21.1005C35.0609 20.8513 35.2077 20.6232 35.377 20.4162C35.553 20.2006 35.7425 20.0267 35.9454 19.8946C36.0324 19.838 36.1108 19.8059 36.1807 19.7983C36.2574 19.7821 36.3229 19.771 36.3772 19.7651C36.4306 19.7514 36.4663 19.7239 36.4844 19.6827C36.5093 19.6328 36.5134 19.546 36.4968 19.4221L36.2372 17.4823C36.2289 17.4204 36.2556 17.3546 36.3172 17.2851C36.3778 17.2077 36.4391 17.1657 36.5012 17.1589C36.5401 17.1547 36.5737 17.1707 36.6022 17.2068C36.6374 17.2344 36.6659 17.2706 36.6877 17.3154C36.7094 17.3601 36.7278 17.4092 36.7428 17.4626C36.7578 17.5159 36.7669 17.5542 36.77 17.5775C36.8871 18.4525 36.991 19.3171 37.0817 20.1715C37.1714 21.018 37.2763 21.8904 37.3965 22.7887C37.4586 22.7819 37.5192 22.7635 37.5782 22.7335C37.6373 22.7035 37.6996 22.6692 37.7654 22.6306C37.8312 22.592 37.893 22.5539 37.951 22.5161C38.0168 22.4775 38.0797 22.4471 38.1397 22.4248C38.1408 22.4326 38.1428 22.4481 38.146 22.4713C38.1568 22.4937 38.1633 22.5126 38.1654 22.5281C38.1799 22.6365 38.153 22.7298 38.0846 22.808C38.023 22.8775 37.9454 22.9449 37.8516 23.0101C37.7657 23.0745 37.6798 23.1388 37.5938 23.2032C37.5156 23.2667 37.4667 23.3428 37.447 23.4313C37.4414 23.4477 37.4408 23.5027 37.4455 23.5965C37.4502 23.6902 37.4486 23.7965 37.4409 23.9152C37.4331 24.0339 37.4122 24.1422 37.378 24.2402C37.3428 24.3305 37.2903 24.3794 37.2204 24.387C37.1116 24.3989 37.0337 24.3759 36.9866 24.3182C36.9472 24.2597 36.9257 24.1874 36.9221 24.1013C36.9185 24.0153 36.9192 23.9327 36.9244 23.8536C36.9373 23.7736 36.9417 23.7182 36.9376 23.6872L35.6445 23.8281ZM35.0541 22.5962C35.0883 22.8517 35.1983 23.0557 35.3842 23.2083C35.5691 23.3532 35.7897 23.4116 36.046 23.3837C36.1003 23.3778 36.1624 23.371 36.2323 23.3634C36.31 23.3549 36.3872 23.3426 36.4638 23.3264C36.5394 23.3024 36.6062 23.2716 36.6642 23.2338C36.7221 23.1961 36.7625 23.1445 36.7853 23.0792C36.7418 22.8718 36.7115 22.6748 36.6944 22.4881C36.684 22.2928 36.6741 22.1014 36.6648 21.9139C36.6544 21.7186 36.6446 21.5272 36.6352 21.3396C36.6249 21.1444 36.6057 20.9422 36.5777 20.7331C36.5653 20.6402 36.536 20.5687 36.4899 20.5188C36.4516 20.468 36.382 20.4481 36.281 20.4591C36.0713 20.4819 35.8826 20.5732 35.7148 20.7329C35.5538 20.884 35.4174 21.0717 35.3056 21.296C35.2005 21.5117 35.1247 21.74 35.0781 21.9807C35.0383 22.2129 35.0302 22.4181 35.0541 22.5962ZM38.9782 23.4648C38.8306 23.4809 38.7001 23.448 38.5867 23.366C38.4733 23.2841 38.3729 23.1812 38.2853 23.0571C38.2056 22.9323 38.1365 22.7984 38.0779 22.6555C38.0272 22.5117 37.9945 22.3857 37.98 22.2773C37.9479 22.0372 37.9575 21.7848 38.0087 21.5199C38.0667 21.2465 38.1539 20.9856 38.2704 20.7372C38.3946 20.488 38.5414 20.2598 38.7107 20.0528C38.8867 19.8372 39.0762 19.6634 39.2791 19.5313C39.3661 19.4747 39.4445 19.4425 39.5144 19.4349C39.5911 19.4187 39.6566 19.4077 39.7109 19.4017C39.7643 19.3881 39.8 19.3606 39.8181 19.3193C39.843 19.2695 39.8471 19.1826 39.8305 19.0587L39.5709 17.119C39.5626 17.057 39.5893 16.9913 39.6509 16.9217C39.7115 16.8444 39.7728 16.8024 39.8349 16.7956C39.8738 16.7914 39.9074 16.8073 39.9359 16.8435C39.9711 16.8711 39.9996 16.9073 40.0214 16.9521C40.0431 16.9968 40.0615 17.0459 40.0765 17.0992C40.0915 17.1526 40.1006 17.1909 40.1037 17.2141C40.2208 18.0891 40.3247 18.9538 40.4154 19.8081C40.5051 20.6547 40.61 21.5271 40.7302 22.4254C40.7923 22.4186 40.8529 22.4002 40.9119 22.3702C40.971 22.3402 41.0333 22.3059 41.0991 22.2673C41.1649 22.2287 41.2267 22.1905 41.2847 22.1528C41.3505 22.1142 41.4134 22.0838 41.4734 22.0615C41.4745 22.0693 41.4765 22.0847 41.4796 22.108C41.4905 22.1304 41.497 22.1493 41.4991 22.1648C41.5136 22.2732 41.4867 22.3665 41.4183 22.4446C41.3567 22.5142 41.2791 22.5816 41.1853 22.6468C41.0994 22.7112 41.0135 22.7755 40.9275 22.8399C40.8493 22.9034 40.8004 22.9794 40.7807 23.068C40.7751 23.0843 40.7745 23.1394 40.7792 23.2331C40.7839 23.3269 40.7823 23.4331 40.7746 23.5518C40.7668 23.6705 40.7459 23.7789 40.7117 23.8769C40.6765 23.9671 40.624 24.0161 40.5541 24.0237C40.4453 24.0355 40.3674 24.0126 40.3203 23.9549C40.2809 23.8963 40.2594 23.824 40.2558 23.738C40.2522 23.652 40.2529 23.5694 40.2581 23.4903C40.271 23.4103 40.2754 23.3548 40.2713 23.3239L38.9782 23.4648ZM38.3878 22.2328C38.422 22.4884 38.532 22.6924 38.7179 22.845C38.9028 22.9898 39.1234 23.0483 39.3796 23.0204C39.434 23.0144 39.4961 23.0077 39.566 23C39.6437 22.9916 39.7209 22.9792 39.7975 22.963C39.8731 22.9391 39.9399 22.9082 39.9979 22.8705C40.0558 22.8327 40.0962 22.7812 40.119 22.7159C40.0755 22.5085 40.0452 22.3115 40.0281 22.1248C40.0177 21.9295 40.0078 21.7381 39.9985 21.5505C39.9881 21.3553 39.9783 21.1639 39.9689 20.9763C39.9586 20.781 39.9394 20.5789 39.9114 20.3698C39.899 20.2769 39.8697 20.2054 39.8236 20.1554C39.7853 20.1046 39.7157 20.0847 39.6147 20.0957C39.405 20.1186 39.2163 20.2099 39.0485 20.3696C38.8875 20.5207 38.7511 20.7084 38.6393 20.9327C38.5342 21.1484 38.4584 21.3766 38.4118 21.6174C38.3719 21.8496 38.3639 22.0547 38.3878 22.2328ZM46.9224 22.9172C46.9193 22.8939 46.9141 22.8552 46.9069 22.801C46.8986 22.7391 46.8864 22.6775 46.8703 22.6164C46.861 22.5467 46.8527 22.4848 46.8455 22.4306C46.8372 22.3686 46.831 22.3222 46.8268 22.2912C46.7968 22.0667 46.7872 21.8477 46.798 21.6344C46.8078 21.4134 46.822 21.1958 46.8407 20.9816C46.866 20.7589 46.8836 20.537 46.8934 20.3159C46.9032 20.0949 46.8931 19.8721 46.8631 19.6475C46.7699 19.6577 46.6629 19.7125 46.5423 19.8121C46.4294 19.9108 46.3104 20.022 46.1851 20.1456C46.0598 20.2693 45.9428 20.396 45.8341 20.5257C45.7321 20.6468 45.6536 20.7378 45.5988 20.7988C45.5988 20.7988 45.5871 20.8 45.5638 20.8026C45.5405 20.8051 45.5211 20.8072 45.5056 20.8089C45.358 20.825 45.2749 20.7634 45.2562 20.624C45.2438 20.5311 45.2775 20.4292 45.3572 20.3184C45.4436 20.199 45.55 20.0813 45.6764 19.9654C45.8094 19.8409 45.9513 19.7233 46.1019 19.6126C46.2604 19.5011 46.4043 19.399 46.5337 19.3063C46.6699 19.205 46.7804 19.1184 46.8653 19.0462C46.958 18.9733 47.0017 18.9175 46.9966 18.8787C47.0229 18.5459 47.0177 18.2715 46.981 18.0555C46.9442 17.8396 46.8898 17.6687 46.8178 17.543C46.7536 17.4164 46.6718 17.335 46.5724 17.2987C46.4797 17.2538 46.3834 17.2407 46.2834 17.2595C46.1913 17.2774 46.0989 17.3228 46.0062 17.3958C45.9135 17.4687 45.8384 17.5555 45.781 17.656C45.7183 17.6 45.6766 17.5534 45.6559 17.5164C45.6342 17.4717 45.6197 17.4222 45.6124 17.368C45.7672 17.1704 45.9269 17.0391 46.0916 16.974C46.264 16.9081 46.4315 16.8937 46.5941 16.931C46.7556 16.9605 46.9068 17.0305 47.0477 17.1408C47.1885 17.2512 47.3014 17.3882 47.3863 17.5517C47.478 17.7067 47.5329 17.8815 47.551 18.0759C47.5759 18.2617 47.5536 18.4488 47.4843 18.637C47.4988 18.6276 47.5278 18.6087 47.5713 18.5804C47.6148 18.5521 47.6626 18.5272 47.7149 18.5058C47.7662 18.4767 47.8141 18.4518 47.8586 18.4313C47.9099 18.4021 47.9466 18.3824 47.9689 18.3721L48.0038 18.3683L48.0621 18.3619C48.0699 18.3611 48.0813 18.3873 48.0963 18.4407C48.118 18.4855 48.1413 18.5419 48.1662 18.6099C48.1978 18.6693 48.225 18.7252 48.2478 18.7777C48.2695 18.8225 48.2809 18.8488 48.2819 18.8565L47.4743 19.357C47.4675 19.3656 47.4517 19.4537 47.4269 19.6214C47.4088 19.7805 47.3871 19.9714 47.3617 20.1942C47.3353 20.4092 47.3105 20.6358 47.2872 20.874C47.2629 21.1045 47.2484 21.2907 47.2438 21.4326C47.2324 21.4653 47.2252 21.5289 47.2221 21.6235C47.2257 21.7096 47.2304 21.8033 47.2361 21.9049C47.2407 21.9986 47.2454 22.0924 47.2501 22.1862C47.2537 22.2722 47.2576 22.3307 47.2617 22.3617C47.268 22.4081 47.2791 22.4619 47.2952 22.523C47.3112 22.5841 47.3306 22.6409 47.3534 22.6934C47.3829 22.7373 47.4197 22.7765 47.4637 22.811C47.5067 22.8378 47.5593 22.8478 47.6214 22.841C47.8466 22.8164 48.039 22.7523 48.1984 22.6485C48.3646 22.5361 48.5065 22.4185 48.624 22.2957C48.7415 22.1729 48.8445 22.0595 48.9331 21.9556C49.0294 21.8508 49.1202 21.7938 49.2057 21.7845C49.2212 21.7828 49.2411 21.7845 49.2655 21.7897C49.2965 21.7864 49.3126 21.7885 49.3136 21.7963C49.3204 22.0234 49.2803 22.2242 49.1933 22.3986C49.1131 22.5645 49.002 22.7062 48.8602 22.8238C48.7261 22.9406 48.5612 23.0332 48.3655 23.1016C48.1697 23.1701 47.9554 23.217 47.7224 23.2424C47.6525 23.2501 47.5743 23.2546 47.4878 23.2562C47.4014 23.2578 47.3211 23.2469 47.2471 23.2235C47.173 23.2002 47.1052 23.1644 47.0436 23.1161C46.9897 23.067 46.9493 23.0006 46.9224 22.9172ZM48.7416 22.7189C48.7385 22.6957 48.7333 22.6569 48.7261 22.6027C48.7178 22.5408 48.7056 22.4793 48.6896 22.4182C48.6802 22.3485 48.6719 22.2865 48.6647 22.2323C48.6564 22.1704 48.6502 22.1239 48.646 22.0929C48.617 21.8761 48.6015 21.6421 48.5994 21.3909C48.5973 21.1398 48.6117 20.8946 48.6428 20.6556C48.6728 20.4088 48.7238 20.1714 48.7957 19.9436C48.8744 19.7072 48.9805 19.4992 49.1141 19.3197C49.2544 19.1316 49.4227 18.9757 49.6189 18.8522C49.8151 18.7287 50.0491 18.6521 50.321 18.6225C50.4996 18.603 50.6428 18.6424 50.7505 18.7407C50.8571 18.8312 50.9364 18.9522 50.9882 19.1037C51.0477 19.2543 51.0889 19.4148 51.1117 19.5851C51.1423 19.7547 51.1663 19.9052 51.184 20.0369C51.2244 20.3389 51.2358 20.6597 51.2182 20.9995C51.1996 21.3315 51.1386 21.6406 51.035 21.9268C50.9315 22.2131 50.7674 22.4588 50.5427 22.664C50.3258 22.8684 50.0348 22.9904 49.6698 23.0302C49.561 23.042 49.4673 23.0483 49.3886 23.0491C49.3099 23.0498 49.2374 23.038 49.1712 23.0138C49.1038 22.9819 49.036 22.9461 48.9677 22.9064C48.8983 22.8589 48.8229 22.7965 48.7416 22.7189ZM49.1214 22.4654C49.2006 22.5275 49.2868 22.5534 49.38 22.5433C49.4732 22.5331 49.5625 22.5234 49.648 22.5141C49.9431 22.4819 50.174 22.3821 50.3407 22.2146C50.5064 22.0395 50.6247 21.8341 50.6956 21.5985C50.7743 21.3621 50.8154 21.1101 50.819 20.8426C50.8293 20.5665 50.819 20.3123 50.7879 20.08C50.7734 19.9716 50.7578 19.8555 50.7412 19.7316C50.7314 19.5991 50.7037 19.4803 50.6581 19.3753C50.6193 19.2617 50.5602 19.1739 50.481 19.1118C50.4007 19.042 50.2907 19.0147 50.1509 19.0299C50.1675 19.1538 50.1644 19.2484 50.1416 19.3138C50.1188 19.3791 50.0818 19.4263 50.0306 19.4555C49.9871 19.4838 49.9309 19.5056 49.862 19.521C49.7999 19.5278 49.7316 19.547 49.657 19.5787C49.5902 19.6095 49.525 19.652 49.4613 19.7061C49.3976 19.7602 49.3464 19.8482 49.3075 19.9703C49.2299 20.3323 49.1546 20.6823 49.0816 21.0202C49.0154 21.3495 49.0061 21.6923 49.0538 22.0485C49.0569 22.0717 49.061 22.1027 49.0662 22.1414C49.0704 22.1724 49.0755 22.2111 49.0818 22.2576C49.0957 22.3032 49.1053 22.3454 49.1105 22.3841C49.1147 22.415 49.1183 22.4421 49.1214 22.4654ZM36.3851 30.3271C36.3769 30.2652 36.368 30.1404 36.3587 29.9529C36.3571 29.7645 36.3563 29.5525 36.3563 29.3168C36.363 29.0725 36.3765 28.8197 36.3966 28.5582C36.4158 28.289 36.4496 28.0417 36.4983 27.8165C36.5547 27.5903 36.6241 27.4021 36.7064 27.2517C36.7887 27.1013 36.8959 27.0189 37.0279 27.0045C37.191 26.9868 37.3274 27.0347 37.4372 27.1485C37.547 27.2622 37.6366 27.4017 37.706 27.567C37.7821 27.7237 37.8399 27.8902 37.8792 28.0666C37.9253 28.2345 37.9551 28.3687 37.9686 28.4694C37.8055 28.4871 37.697 28.4715 37.6431 28.4223C37.5893 28.3732 37.5455 28.3112 37.5119 28.2363C37.486 28.1606 37.4562 28.0852 37.4225 28.0104C37.3878 27.9277 37.312 27.8613 37.195 27.8112C37.0308 27.9391 36.9156 28.1088 36.8494 28.3203C36.7821 28.524 36.7368 28.745 36.7135 28.9833C36.698 29.2206 36.7014 29.452 36.7237 29.6774C36.746 29.9028 36.7691 30.1046 36.7929 30.2827C36.8219 30.4995 36.8851 30.6773 36.9824 30.8159C37.0876 30.9537 37.2644 31.0091 37.5129 30.982C37.7071 30.9608 37.8883 30.9018 38.0566 30.8049C38.2248 30.708 38.3827 30.5926 38.5303 30.4587C38.6768 30.317 38.8106 30.1689 38.9318 30.0142C39.0597 29.851 39.1769 29.6968 39.2836 29.5516L39.5049 29.5275C39.5049 29.5275 39.5031 29.5434 39.4995 29.5753C39.5026 29.5985 39.5013 29.6183 39.4956 29.6346C39.4169 29.871 39.3085 30.091 39.1702 30.2946C39.032 30.4983 38.8746 30.6765 38.6981 30.8293C38.5215 30.9821 38.322 31.1099 38.0993 31.2127C37.8845 31.3147 37.6528 31.3792 37.4042 31.4063C37.2256 31.4258 37.0744 31.4148 36.9507 31.3733C36.8336 31.3232 36.7373 31.2512 36.6617 31.1573C36.5851 31.0556 36.5258 30.9364 36.4838 30.7996C36.4408 30.655 36.4079 30.4975 36.3851 30.3271ZM41.6069 29.4988C41.509 29.6509 41.3928 29.8128 41.2582 29.9846C41.1313 30.1555 40.9874 30.3166 40.8264 30.4677C40.6732 30.6179 40.5057 30.7501 40.3239 30.8642C40.149 30.9697 39.9605 31.0334 39.7586 31.0554C39.3469 31.1003 39.1147 30.9253 39.0618 30.5304C39.0401 30.3678 39.0776 30.1476 39.1744 29.8699C39.2779 29.5837 39.4187 29.2816 39.5968 28.9636C39.7749 28.6457 39.9778 28.3368 40.2056 28.037C40.4324 27.7295 40.6659 27.4722 40.9061 27.2654C41.1453 27.0507 41.3705 26.9084 41.5817 26.8382C41.8008 26.7672 41.9921 26.8131 42.1557 26.976C42.1837 27.1851 42.1961 27.3958 42.1931 27.6083C42.19 27.8207 42.1869 28.0332 42.1838 28.2457C42.1797 28.4504 42.1755 28.6551 42.1714 28.8598C42.1673 29.0645 42.1792 29.2714 42.2072 29.4805C42.2134 29.5269 42.2272 29.6001 42.2484 29.6999C42.2764 29.7911 42.3087 29.8858 42.3455 29.9839C42.389 30.0735 42.4392 30.1544 42.4962 30.2268C42.5521 30.2914 42.6189 30.3195 42.6966 30.311C42.883 30.2907 43.0313 30.2509 43.1416 30.1918C43.2596 30.1318 43.3572 30.0662 43.4344 29.9949C43.5183 29.915 43.5856 29.8291 43.6363 29.7372C43.6948 29.6444 43.7533 29.5516 43.8118 29.4588C43.8781 29.3652 43.9526 29.2746 44.0354 29.187C44.1183 29.0994 44.2304 29.0243 44.3717 28.9618C44.3717 28.9618 44.3733 28.9734 44.3764 28.9966C44.3795 29.0198 44.3821 29.0392 44.3841 29.0547C44.4101 29.2483 44.3777 29.4482 44.2871 29.6545C44.1955 29.853 44.0702 30.0356 43.9113 30.2022C43.7523 30.3688 43.5665 30.5108 43.3537 30.6283C43.1476 30.7372 42.9397 30.803 42.73 30.8259C42.5514 30.8453 42.401 30.8107 42.2788 30.7219C42.1566 30.633 42.0512 30.5228 41.9627 30.391C41.8819 30.2584 41.8151 30.1125 41.7622 29.9532C41.7084 29.7863 41.6566 29.6348 41.6069 29.4988ZM41.6129 27.9543C41.6564 27.6903 41.6603 27.5131 41.6245 27.4228C41.5965 27.3315 41.5375 27.3026 41.4474 27.336C41.3563 27.3616 41.2447 27.4406 41.1127 27.5728C40.9797 27.6973 40.8386 27.8502 40.6895 28.0314C40.5393 28.2049 40.3918 28.3977 40.2468 28.61C40.1019 28.8222 39.9675 29.0254 39.8438 29.2195C39.719 29.406 39.6194 29.574 39.5448 29.7235C39.4703 29.873 39.4255 29.9801 39.4105 30.0446C39.3878 30.2277 39.3981 30.3641 39.4416 30.4536C39.4929 30.5423 39.5561 30.6022 39.6311 30.6333C39.713 30.6558 39.795 30.6508 39.8773 30.6183C39.9674 30.5849 40.0404 30.5416 40.0963 30.4883C40.2128 30.3578 40.3591 30.1847 40.5351 29.9691C40.7101 29.7458 40.8758 29.5117 41.0321 29.2668C41.1962 29.0211 41.3337 28.7822 41.4444 28.5501C41.5542 28.3103 41.6103 28.1117 41.6129 27.9543ZM44.3318 30.2388C44.368 29.9206 44.385 29.636 44.3829 29.3848C44.3876 29.125 44.3777 28.8747 44.3534 28.6338C44.3368 28.392 44.307 28.14 44.264 27.8775C44.2287 27.6143 44.1888 27.3161 44.1443 26.9832C44.02 26.9967 43.9278 27.0146 43.8678 27.0369C43.8155 27.0583 43.7792 27.0819 43.7591 27.1076C43.7378 27.1257 43.7249 27.1467 43.7202 27.1708C43.7156 27.1949 43.7031 27.2198 43.683 27.2456C43.6695 27.2627 43.6366 27.282 43.5843 27.3034C43.532 27.3249 43.4476 27.3419 43.3311 27.3546C43.2612 27.3622 43.2071 27.3406 43.1688 27.2898C43.1305 27.239 43.1067 27.1787 43.0973 27.109C43.0891 27.0471 43.123 26.9766 43.1991 26.8976C43.2674 26.8195 43.3513 26.7396 43.4507 26.6581C43.5579 26.5757 43.6666 26.5049 43.7769 26.4458C43.8949 26.3858 43.9966 26.3511 44.0821 26.3418C44.1131 26.3384 44.1579 26.3492 44.2164 26.3743C44.2817 26.3907 44.3446 26.4192 44.4052 26.4598C44.4647 26.4926 44.5131 26.5305 44.5504 26.5736C44.5955 26.6158 44.6211 26.6601 44.6273 26.7066L44.8434 28.3211C44.9055 28.1965 45.0085 28.0242 45.1525 27.8043C45.2964 27.5843 45.4602 27.3661 45.644 27.1497C45.8268 26.9255 46.017 26.728 46.2148 26.5572C46.4126 26.3863 46.5969 26.2916 46.7678 26.273C47.0008 26.2476 47.1742 26.3073 47.2881 26.452C47.401 26.5889 47.4725 26.7697 47.5025 26.9943C47.4093 27.0044 47.3335 26.997 47.275 26.9719C47.2165 26.9469 47.1613 26.9175 47.1095 26.8839C47.0655 26.8494 47.0187 26.8231 46.969 26.8049C46.9182 26.779 46.854 26.7703 46.7763 26.7788C46.534 26.8523 46.3176 27.0016 46.1271 27.2267C45.9366 27.4517 45.7663 27.7099 45.6161 28.0012C45.4738 28.2917 45.349 28.596 45.2419 28.9141C45.1425 29.2313 45.055 29.5197 44.9794 29.7794C44.9039 30.039 44.8415 30.2501 44.7923 30.4126C44.7509 30.5742 44.7204 30.6404 44.7007 30.6111C44.623 30.6196 44.5446 30.5928 44.4654 30.5307C44.3929 30.46 44.3499 30.3744 44.3364 30.2737L44.3318 30.2388ZM49.1333 29.7155C49.1302 29.6923 49.125 29.6536 49.1178 29.5994C49.1095 29.5374 49.0973 29.4759 49.0813 29.4148C49.0719 29.3451 49.0636 29.2832 49.0564 29.229C49.0481 29.167 49.0419 29.1206 49.0377 29.0896C49.0077 28.865 48.9981 28.6461 49.0089 28.4328C49.0188 28.2117 49.033 27.9941 49.0516 27.78C49.0769 27.5572 49.0945 27.3354 49.1043 27.1143C49.1142 26.8933 49.104 26.6704 49.074 26.4459C48.9808 26.456 48.8739 26.5109 48.7532 26.6105C48.6404 26.7092 48.5213 26.8204 48.396 26.944C48.2707 27.0677 48.1537 27.1943 48.045 27.324C47.943 27.4451 47.8646 27.5362 47.8097 27.5972C47.8097 27.5972 47.798 27.5984 47.7747 27.601C47.7514 27.6035 47.732 27.6056 47.7165 27.6073C47.5689 27.6234 47.4858 27.5617 47.4672 27.4224C47.4547 27.3294 47.4884 27.2276 47.5681 27.1167C47.6546 26.9973 47.761 26.8797 47.8873 26.7638C48.0203 26.6393 48.1622 26.5217 48.3129 26.411C48.4713 26.2995 48.6152 26.1973 48.7446 26.1047C48.8808 26.0034 48.9913 25.9167 49.0763 25.8446C49.1689 25.7717 49.2127 25.7158 49.2075 25.6771C49.2339 25.3443 49.2287 25.0699 49.1919 24.8539C49.1551 24.6379 49.1007 24.4671 49.0287 24.3414C48.9645 24.2148 48.8827 24.1334 48.7833 24.0971C48.6906 24.0522 48.5943 24.0391 48.4944 24.0579C48.4022 24.0758 48.3098 24.1212 48.2171 24.1941C48.1244 24.2671 48.0494 24.3538 47.9919 24.4544C47.9292 24.3984 47.8876 24.3518 47.8669 24.3148C47.8451 24.27 47.8306 24.2205 47.8233 24.1663C47.9781 23.9688 48.1379 23.8375 48.3025 23.7724C48.4749 23.7064 48.6424 23.6921 48.805 23.7294C48.9665 23.7589 49.1177 23.8289 49.2586 23.9392C49.3994 24.0496 49.5123 24.1865 49.5973 24.3501C49.6889 24.5051 49.7438 24.6798 49.762 24.8743C49.7868 25.0601 49.7646 25.2472 49.6952 25.4354C49.7097 25.426 49.7387 25.4071 49.7822 25.3788C49.8257 25.3505 49.8736 25.3256 49.9259 25.3042C49.9771 25.2751 50.025 25.2502 50.0695 25.2296C50.1208 25.2005 50.1576 25.1808 50.1798 25.1705L50.2148 25.1667L50.273 25.1603C50.2808 25.1595 50.2922 25.1857 50.3072 25.2391C50.329 25.2839 50.3523 25.3402 50.3771 25.4082C50.4087 25.4676 50.4359 25.5236 50.4587 25.5761C50.4804 25.6209 50.4918 25.6471 50.4929 25.6549L49.6852 26.1554C49.6785 26.164 49.6627 26.2521 49.6378 26.4198C49.6197 26.5789 49.598 26.7698 49.5727 26.9926C49.5463 27.2076 49.5214 27.4342 49.4982 27.6724C49.4738 27.9029 49.4594 28.0891 49.4547 28.231C49.4433 28.2637 49.4361 28.3273 49.433 28.4219C49.4366 28.508 49.4413 28.6017 49.447 28.7032C49.4517 28.797 49.4563 28.8908 49.461 28.9845C49.4646 29.0706 49.4685 29.1291 49.4727 29.16C49.4789 29.2065 49.49 29.2603 49.5061 29.3214C49.5221 29.3825 49.5416 29.4393 49.5644 29.4918C49.5939 29.5357 49.6306 29.5749 49.6746 29.6094C49.7176 29.6361 49.7702 29.6461 49.8323 29.6394C50.0575 29.6148 50.2499 29.5506 50.4094 29.4468C50.5755 29.3345 50.7174 29.2169 50.8349 29.0941C50.9525 28.9713 51.0555 28.8579 51.144 28.754C51.2403 28.6492 51.3312 28.5922 51.4166 28.5829C51.4321 28.5812 51.4521 28.5829 51.4764 28.5881C51.5075 28.5847 51.5235 28.5869 51.5246 28.5947C51.5313 28.8218 51.4912 29.0225 51.4042 29.197C51.324 29.3629 51.2129 29.5046 51.0711 29.6222C50.937 29.7389 50.7721 29.8316 50.5764 29.9C50.3807 29.9685 50.1663 30.0154 49.9333 30.0408C49.8634 30.0484 49.7852 30.053 49.6988 30.0546C49.6123 30.0562 49.532 30.0453 49.458 30.0219C49.384 29.9986 49.3161 29.9627 49.2545 29.9145C49.2007 29.8653 49.1603 29.799 49.1333 29.7155Z" fill="#A15F56"/>
</g>
<defs>
<clipPath id="clip0_68_6">
<rect width="69" height="66" fill="white"/>
</clipPath>
</defs>
</svg>
