<svg width="1438" height="204" viewBox="0 0 1438 204" fill="none" xmlns="http://www.w3.org/2000/svg">
<path fill-rule="evenodd" clip-rule="evenodd" d="M0 0.739575L39.9444 14.8619C79.8889 28.9842 159.778 58.2376 239.667 80.4298C319.556 101.613 399.444 116.744 479.333 109.683C559.222 101.613 639.111 73.3686 719 94.5521C798.889 116.744 878.778 189.373 958.667 167.181C1038.56 145.998 1137.92 58.2376 1217.81 21.923C1297.7 -14.3915 1358.11 0.739563 1398.06 21.923L1438 44.1152V204H1398.06C1358.11 204 1278.22 204 1198.33 204C1118.44 204 1038.56 204 958.667 204C878.778 204 798.889 204 719 204C639.111 204 559.222 204 479.333 204C399.444 204 319.556 204 239.667 204C159.778 204 79.8889 204 39.9444 204H0V0.739575Z" fill="#FFDEE7"/>
</svg>
