<svg width="1435" height="180" viewBox="0 0 1435 180" fill="none" xmlns="http://www.w3.org/2000/svg">
<path fill-rule="evenodd" clip-rule="evenodd" d="M1435 179.266L1395.14 165.245C1355.28 151.224 1275.56 122.181 1195.83 100.148C1116.11 79.1173 1036.39 64.095 956.667 71.1054C876.944 79.1173 797.222 107.159 717.5 86.1277C637.778 64.095 558.056 -8.01187 478.333 14.0208C398.611 35.052 299.457 122.181 219.734 158.235C140.012 194.288 79.7222 179.266 39.8611 158.235L0 136.202V0H39.8611C79.7222 0 159.444 0 239.167 0C318.889 0 398.611 0 478.333 0C558.056 0 637.778 0 717.5 0C797.222 0 876.944 0 956.667 0C1036.39 0 1116.11 0 1195.83 0C1275.56 0 1355.28 0 1395.14 0H1435L1435 179.266Z" fill="#FFDEE7"/>
</svg>
